<svg
  width="1280"
  height="494"
  viewBox="0 0 1280 494"
  fill="none"
  xmlns="http://www.w3.org/2000/svg"
>
  <g filter="url(#filter0_d_98_60)">
    <path
      d="M69 337.5L184.074 318.47L475.5 159L748.794 278.19L918.86 170.777L1042 198.5L1095 5L1278 107.5V492.5H-5V402.5L69 337.5Z"
      fill="#FCB2AB"
      fill-opacity="0.17"
      shape-rendering="crispEdges"
    />
  </g>
  <path
    d="M-13.5 505L111 394L212.5 373L303.5 314.5L370.5 384L506 260.5L579.5 305.5L628.5 351L668.5 438.5L776 394L868 294.5L962.5 426.5L1031 303.5L1093 361L1142 100.5L1295 285"
    stroke="#E4E4E8"
    stroke-width="6"
  />
  <g filter="url(#filter1_d_98_60)">
    <circle cx="110.5" cy="396.5" r="44.5" fill="white" />
    <path
      d="M1180 98.5C1180 123.077 1160.08 143 1135.5 143C1110.92 143 1091 123.077 1091 98.5C1091 73.9233 1110.92 54 1135.5 54C1160.08 54 1180 73.9233 1180 98.5Z"
      fill="white"
    />
    <circle cx="865.5" cy="298.5" r="44.5" fill="white" />
    <path
      d="M548 257.5C548 282.077 528.077 302 503.5 302C478.923 302 459 282.077 459 257.5C459 232.923 478.923 213 503.5 213C528.077 213 548 232.923 548 257.5Z"
      fill="white"
    />
  </g>
  <g filter="url(#filter2_d_98_60)">
    <circle cx="213" cy="372" r="12" fill="#F15D5D" />
    <circle cx="304" cy="315" r="12" fill="#F15D5D" />
    <circle cx="370" cy="384" r="12" fill="#F15D5D" />
    <circle cx="580" cy="306" r="12" fill="#F15D5D" />
    <circle cx="628" cy="351" r="12" fill="#F15D5D" />
    <circle cx="669" cy="437" r="12" fill="#F15D5D" />
    <circle cx="776" cy="393" r="12" fill="#F15D5D" />
    <circle cx="963" cy="425" r="12" fill="#F15D5D" />
    <circle cx="1031" cy="303" r="12" fill="#F15D5D" />
    <circle cx="1093" cy="360" r="12" fill="#F15D5D" />
  </g>
  <g clip-path="url(#clip0_98_60)">
    <path
      d="M1102.22 99.5819L1101.98 99.4681C1101.46 99.171 1101.03 98.7219 1100.77 98.1797C1100.38 97.5139 1100.18 96.7603 1100.17 95.9922L1100.23 95.6159C1100.23 95.0341 1100.38 94.5113 1100.64 94.0103L1100.88 93.5772C1100.99 93.3388 1101.16 93.1331 1101.31 92.9384C1101.39 92.8419 1101.45 92.7269 1101.48 92.6037C1101.5 92.4805 1101.5 92.3528 1101.46 92.2319L1101.31 91.7638C1101.14 91.1991 1101.04 90.612 1101.03 90.0203L1100.94 89.6681C1100.94 89.0184 1101.11 88.3797 1101.52 87.9138L1101.81 87.5375C1102.02 87.2422 1102.34 87.0694 1102.69 86.9556C1102.98 86.8638 1103.18 86.5684 1103.22 86.2272L1103.27 85.2363C1103.27 84.4509 1103.65 83.7203 1104.23 83.1844L1104.94 82.6594C1105.08 82.5216 1105.22 82.375 1105.34 82.1344C1105.48 81.9638 1105.52 81.7231 1105.48 81.5525C1105.43 81.2681 1105.48 81.1762 1105.63 81.1412C1106.1 81.3228 1106.4 81.2659 1106.6 81.0275L1106.98 80.5375L1108.03 79.365C1108.18 79.206 1108.28 79.006 1108.32 78.7896C1108.36 78.5733 1108.34 78.3498 1108.25 78.1466L1107.91 77.3831C1107.86 77.2125 1107.91 77.0069 1108.06 76.95C1108.44 76.95 1108.7 77.0878 1108.81 77.3262L1108.93 77.5319C1109.11 77.8841 1109.52 78.0569 1109.8 77.9081C1110.34 77.7153 1110.9 77.619 1111.47 77.6238H1112.4C1113.04 77.6238 1113.56 77.1797 1113.69 76.5081C1113.8 75.6987 1114.09 75.0491 1114.5 74.6159C1114.94 74.115 1115.43 73.7387 1116.01 73.4434C1116.78 73.0453 1117.25 72.4525 1117.39 71.7C1117.6 70.7659 1118.09 70.0944 1118.76 69.6612L1120.98 68.4078L1121.62 68.0206C1122 67.7931 1122.35 67.4956 1122.65 67.1434L1123.23 66.4478C1123.48 66.1692 1123.8 65.9674 1124.16 65.8659C1124.45 65.7741 1124.86 65.7172 1125.21 65.7522L1126.37 65.8309C1126.95 65.8309 1127.42 65.9797 1127.89 66.1831L1128.18 66.3319C1128.48 66.4456 1128.77 66.3888 1128.91 66.1831L1129.17 66.0344L1130.43 64.7241C1130.56 64.5849 1130.72 64.4799 1130.9 64.4184C1131.08 64.3569 1131.27 64.3409 1131.45 64.3719C1131.83 64.4288 1132.21 64.5775 1132.56 64.7591C1133.08 65.0434 1133.52 65.1572 1134.02 65.1572H1134.31C1134.95 65.1572 1135.59 65.2491 1136.24 65.3956L1136.67 65.5094C1136.88 65.5616 1137.11 65.5505 1137.31 65.4774C1137.52 65.4044 1137.7 65.2725 1137.83 65.0981C1137.85 65.064 1137.88 65.035 1137.91 65.013C1137.95 64.9911 1137.99 64.9769 1138.02 64.9715C1138.06 64.966 1138.1 64.9695 1138.14 64.9815C1138.18 64.9936 1138.22 65.014 1138.24 65.0413C1138.34 65.0981 1138.36 65.155 1138.39 65.2469C1138.45 65.8288 1138.8 66.2728 1139.27 66.4084L1139.74 66.5572C1140.23 66.7059 1140.67 67.0253 1140.96 67.4344C1141.25 67.8675 1141.61 68.3116 1142 68.5959L1142.3 68.8912C1142.44 69.0317 1142.62 69.1383 1142.81 69.2034C1143 69.2684 1143.2 69.2903 1143.4 69.2675H1145.12C1145.83 69.2675 1146.5 69.3922 1147.18 69.6787C1147.81 69.9741 1148.49 70.0309 1149.09 69.7925C1149.74 69.5978 1150.41 69.5081 1151.08 69.5978L1152.34 69.7925C1152.92 69.8603 1153.5 70.1447 1153.85 70.5909L1154 70.7287C1154.29 71.0241 1154.58 71.4003 1154.87 71.8116C1154.96 71.9909 1155.1 72.1404 1155.28 72.2431C1155.45 72.3459 1155.65 72.3979 1155.86 72.3934H1157.67C1158.11 72.3934 1158.55 72.4853 1158.9 72.6887C1159.28 72.9731 1159.6 73.2706 1159.89 73.5659L1160.18 73.9422C1160.53 74.3534 1160.7 74.9003 1160.68 75.4909C1160.68 75.9591 1161.03 76.3572 1161.49 76.3572L1162.08 76.425C1162.49 76.425 1162.83 76.7094 1163.04 77.0856L1163.33 77.6784L1164.09 79.365C1164.19 79.6237 1164.24 79.9057 1164.21 80.1853C1164.21 80.4697 1164.29 80.7103 1164.49 80.8241L1164.79 81.0297C1164.98 81.1705 1165.13 81.3586 1165.22 81.5749C1165.31 81.7911 1165.34 82.0279 1165.31 82.2612L1165.11 83.6284L1165.05 84.2103C1165.03 84.3746 1165.05 84.5423 1165.11 84.6964C1165.17 84.8504 1165.27 84.9854 1165.4 85.0875C1165.84 85.3719 1166.04 85.7591 1166.06 86.1922V86.7741C1166.06 87.0694 1166.01 87.4238 1165.78 87.6513C1165.59 87.902 1165.48 88.2111 1165.49 88.5284L1165.58 89.2C1165.58 89.6681 1165.86 90.0772 1166.16 90.3616C1166.35 90.5091 1166.52 90.6941 1166.64 90.9057C1166.76 91.1172 1166.84 91.351 1166.87 91.5931C1166.98 92.3216 1167 92.9034 1167 93.4853V94.1569C1167 94.3953 1167 94.625 1167.1 94.8525C1167.16 95.0667 1167.29 95.2545 1167.47 95.3884L1168.05 95.8216C1168.65 96.1978 1169.06 96.6988 1169.28 97.3703C1169.58 98.0091 1169.66 98.6806 1169.66 99.3522V99.5797C1169.66 100.105 1169.6 100.662 1169.43 101.152C1169.29 101.633 1169.31 102.15 1169.51 102.612C1169.75 103.023 1169.9 103.489 1169.96 103.99C1170.07 104.572 1170.01 105.151 1169.81 105.619L1169.75 105.825C1169.6 106.182 1169.37 106.502 1169.08 106.759C1168.78 107.054 1168.5 107.227 1168.33 107.431C1168.15 107.601 1168.03 107.899 1168.12 108.159L1168.2 108.57C1168.35 109.152 1168.35 109.732 1168.2 110.257V110.495C1168.09 110.928 1167.92 111.305 1167.73 111.657C1167.53 112.028 1167.23 112.333 1166.87 112.534L1166.42 112.818C1166.31 112.89 1166.23 112.986 1166.16 113.099C1166.1 113.213 1166.07 113.339 1166.07 113.468C1166.07 113.746 1165.97 114.014 1165.78 114.221L1165.34 114.813C1165.06 115.19 1164.68 115.509 1164.27 115.68C1163.9 115.938 1163.56 116.231 1163.24 116.557C1162.95 116.899 1162.73 117.298 1162.6 117.729C1162.56 117.957 1162.45 118.163 1162.27 118.311C1162.09 118.46 1161.87 118.54 1161.64 118.539H1160.06C1159.65 118.539 1159.28 118.834 1159.1 119.188C1158.94 119.58 1158.71 119.942 1158.43 120.26C1158.15 120.555 1157.95 120.915 1157.84 121.308C1157.78 121.66 1157.5 121.901 1157.2 121.776C1157.04 121.701 1156.85 121.69 1156.68 121.744C1156.5 121.799 1156.36 121.915 1156.27 122.072C1155.97 122.584 1155.61 123.055 1155.2 123.474L1154.99 123.644C1154.6 123.94 1154.11 124.169 1153.67 124.169C1153.14 124.169 1152.88 124.408 1152.8 124.751C1152.71 125.079 1152.65 125.414 1152.62 125.753C1152.56 126.081 1152.46 126.402 1152.34 126.711L1152.19 126.882C1151.89 127.326 1151.66 127.759 1151.37 128.135L1151.25 128.317C1150.88 128.807 1150.38 129.194 1149.79 129.332C1149.17 129.539 1148.52 129.639 1147.87 129.627H1147.46C1147.3 129.636 1147.14 129.684 1147.01 129.765C1146.87 129.847 1146.76 129.96 1146.67 130.095L1146.5 130.391L1146.32 130.732L1145.94 131.382C1145.81 131.634 1145.62 131.857 1145.39 132.037C1145.17 132.216 1144.91 132.35 1144.63 132.429C1144.02 132.579 1143.39 132.636 1142.77 132.6L1142.3 132.543C1141.89 132.543 1141.51 132.429 1141.14 132.248C1140.84 132.134 1140.43 132.248 1140.26 132.543C1140.01 132.903 1139.65 133.171 1139.23 133.307L1138.36 133.591C1137.75 133.74 1137.12 133.74 1136.52 133.591L1136.05 133.442C1135.76 133.422 1135.48 133.323 1135.23 133.158C1134.97 133.016 1134.67 132.953 1134.37 132.976L1133.98 133.044C1133.4 133.101 1132.87 133.044 1132.35 132.895L1131.56 132.714C1131.2 132.601 1130.89 132.363 1130.69 132.042C1130.6 131.883 1130.47 131.748 1130.32 131.647C1130.16 131.546 1129.99 131.482 1129.81 131.46H1128.88C1128.29 131.382 1127.77 131.176 1127.42 130.732L1126.25 129.627L1125.84 129.275L1125.2 128.807L1124.83 128.522C1124.37 128.208 1123.85 128.009 1123.3 127.941L1121.56 127.645C1121.38 127.645 1121.26 127.588 1121.09 127.553L1120.42 127.405C1120.12 127.348 1119.84 127.12 1119.63 126.823C1119.46 126.538 1119.13 126.412 1118.85 126.538C1118.27 126.766 1117.8 126.823 1117.33 126.915H1116.92C1116.18 126.979 1115.43 126.849 1114.75 126.538C1114.06 126.243 1113.59 125.81 1113.16 125.25C1112.98 124.992 1112.76 124.772 1112.5 124.601C1112.23 124.431 1111.94 124.315 1111.63 124.259L1110.82 124.088C1110.22 123.963 1109.64 123.723 1109.13 123.382C1108.54 122.971 1108.25 122.597 1108.02 122.128C1107.78 121.676 1107.64 121.179 1107.61 120.669V120.442C1107.55 119.849 1107.14 119.326 1106.6 119.188C1106 119.016 1105.46 118.716 1104.99 118.311C1104.78 118.116 1104.62 117.881 1104.51 117.62C1104.4 117.36 1104.34 117.079 1104.34 116.795L1104.41 115.507C1104.41 115.006 1104.26 114.573 1103.91 114.253C1103.55 113.901 1103.33 113.468 1103.33 113L1103.23 111.952C1103.16 111.184 1103.04 110.422 1102.86 109.673C1102.69 109.001 1102.95 108.327 1103.5 108.01L1103.7 107.862C1103.85 107.762 1103.95 107.612 1104 107.44C1104.04 107.268 1104.02 107.085 1103.94 106.928L1103.7 106.643C1103.47 106.375 1103.16 106.174 1102.82 106.061C1102.6 105.993 1102.54 105.766 1102.54 105.617L1102.82 105.265C1102.9 105.167 1102.95 105.044 1102.95 104.917C1102.95 104.79 1102.9 104.667 1102.82 104.569C1102.61 104.345 1102.48 104.056 1102.45 103.749L1102.39 101.71C1102.39 101.299 1102.45 100.89 1102.56 100.492C1102.69 100.14 1102.56 99.7284 1102.22 99.5578L1102.22 99.5819ZM1131.09 95.7297C1131.3 95.5241 1131.26 95.1478 1131.09 95.0013C1130.82 94.7873 1130.59 94.5202 1130.42 94.2159L1130.13 93.7478C1129.93 93.38 1129.68 93.0456 1129.37 92.7569L1129.32 92.7C1129.03 92.4648 1128.8 92.1642 1128.65 91.8228C1128.57 91.6882 1128.53 91.5374 1128.53 91.3842C1128.53 91.231 1128.57 91.0802 1128.65 90.9456L1128.82 90.6613C1129 90.3432 1129.1 89.9823 1129.11 89.6134V89.4888C1129.1 89.178 1128.99 88.8777 1128.82 88.6225C1128.69 88.362 1128.59 88.0864 1128.53 87.8022V87.6316C1128.49 87.4545 1128.49 87.2701 1128.53 87.0923C1128.57 86.9146 1128.65 86.7481 1128.76 86.6056C1129 86.2294 1129.17 85.8772 1129.26 85.4441V85.3763C1129.31 85.2173 1129.33 85.0489 1129.31 84.8831C1129.28 84.7173 1129.23 84.5585 1129.14 84.4181C1129.05 84.2813 1128.99 84.126 1128.97 83.9642C1128.95 83.8024 1128.97 83.6382 1129.02 83.4841L1129.23 82.9022C1129.4 82.3772 1129.67 81.9112 1130.01 81.5L1130.42 81.0669L1130.72 80.7147L1130.89 80.5441C1130.98 80.4492 1131.03 80.3283 1131.04 80.2005C1131.05 80.0726 1131.02 79.945 1130.95 79.8375C1130.79 79.5728 1130.73 79.2636 1130.78 78.9603L1130.83 78.5491C1130.92 77.9672 1131.13 77.3875 1131.5 76.9194L1131.62 76.8056C1132.05 76.2238 1132.61 75.8366 1133.25 75.6331L1134.05 75.3488C1134.39 75.235 1134.63 74.8478 1134.63 74.4716C1134.63 74.0034 1134.78 73.5944 1135.04 73.2181L1135.18 73.0694C1135.47 72.5794 1135.82 72.0784 1136.05 71.5534L1136.26 71.1772C1136.31 71.0884 1136.35 70.9866 1136.35 70.8819C1136.35 70.3919 1136.05 69.9478 1135.59 69.9237L1134.31 69.8319C1133.58 69.775 1132.85 69.8319 1132.15 69.8319L1129.67 70.1272C1129.29 70.1272 1129 70.4116 1128.97 70.8228C1128.96 71.0167 1128.9 71.2046 1128.78 71.3614C1128.67 71.5181 1128.51 71.6363 1128.33 71.7L1127.28 71.9844L1126.99 72.0762L1126.11 72.3716C1125.79 72.4768 1125.49 72.6476 1125.24 72.8732C1124.99 73.0988 1124.79 73.3742 1124.65 73.6819L1124.42 74.0581C1124.12 74.7041 1123.63 75.244 1123.02 75.6069C1122.44 75.9831 1122.14 76.5978 1122.09 77.2934V77.5887C1122.03 78.1706 1121.85 78.7503 1121.5 79.1616L1121.35 79.4C1121.24 79.5344 1121.16 79.6987 1121.14 79.874C1121.11 80.0493 1121.13 80.2285 1121.21 80.3909C1121.35 80.7322 1121.44 81.1194 1121.41 81.4956V83.0444C1121.41 83.2292 1121.35 83.4088 1121.25 83.5623C1121.14 83.7157 1121 83.8366 1120.83 83.9106C1120.64 83.9805 1120.46 84.0972 1120.33 84.2503C1120.19 84.4034 1120.09 84.5881 1120.04 84.7878L1119.9 85.3697C1119.83 85.6532 1119.86 85.9487 1119.96 86.2199C1120.06 86.4911 1120.24 86.7262 1120.48 86.8966C1120.95 87.2378 1121.24 87.7628 1121.35 88.4125V88.9375C1121.45 89.5194 1121.77 90.0991 1122.29 90.3966C1122.81 90.7488 1123.22 91.2738 1123.45 91.8556L1123.6 92.3238C1123.7 92.6122 1123.88 92.8664 1124.11 93.0563C1124.35 93.2462 1124.64 93.364 1124.94 93.3956H1125.11C1125.64 93.3956 1126.11 93.6909 1126.4 94.1591C1126.69 94.6272 1127.16 94.9444 1127.68 95.0363L1128.5 95.2638C1129 95.4125 1129.47 95.675 1129.84 96.0491L1129.9 96.1169C1130.06 96.231 1130.25 96.2817 1130.44 96.2585C1130.63 96.2353 1130.8 96.14 1130.93 95.9922L1131.13 95.7647L1131.09 95.7297ZM1134.42 93.0522C1134.7 93.2228 1135 93.1309 1135.11 92.8706L1135.21 92.7328C1135.41 92.3216 1135.67 91.9125 1135.96 91.5603L1136.55 90.6831C1136.63 90.6831 1136.66 90.6263 1136.69 90.5694L1137.4 89.6353C1137.69 89.3509 1138.03 89.1453 1138.44 89.1453C1138.63 89.1463 1138.81 89.0914 1138.97 88.9878C1139.13 88.8842 1139.25 88.7365 1139.32 88.5634C1139.43 88.1522 1139.6 87.765 1139.96 87.4478L1140.11 87.2772C1140.4 86.9819 1140.69 86.8331 1140.99 86.6953C1141.36 86.6384 1141.71 86.5706 1142.07 86.5706H1142.93C1143.29 86.5706 1143.58 86.4328 1143.75 86.1375C1143.93 85.8422 1144.19 85.6475 1144.48 85.4988L1144.78 85.3741C1145.25 85.1794 1145.77 85.0328 1146.29 84.9759L1146.88 84.9191C1147.23 84.9191 1147.6 84.9191 1147.96 85.1138C1148.24 85.3194 1148.63 85.2953 1148.92 85.0569L1149.12 84.9431C1149.56 84.6478 1150.06 84.4181 1150.58 84.3613H1150.64C1151.2 84.2628 1151.77 84.232 1152.34 84.2694H1152.62C1153.2 84.3613 1153.7 84.5647 1154.08 84.9978L1154.17 85.1116C1154.47 85.4069 1154.92 85.6475 1155.33 85.6475H1155.83C1155.98 85.6475 1156.12 85.5797 1156.21 85.4419C1156.31 85.3372 1156.44 85.2726 1156.59 85.2603H1156.88C1157.29 85.2603 1157.67 85.3741 1158.04 85.4988L1158.54 85.7044C1159.01 85.8422 1159.5 85.9888 1160 86.0456H1160.36C1160.58 86.0456 1160.73 85.9078 1160.73 85.7044C1160.74 85.4169 1160.67 85.1324 1160.53 84.8841L1160.32 84.4159C1160.09 84.0397 1159.91 83.6306 1159.74 83.2544L1159.68 83.1056C1159.61 82.971 1159.57 82.8202 1159.57 82.667C1159.57 82.5138 1159.61 82.3631 1159.68 82.2284V82.0797C1159.71 81.9634 1159.7 81.8406 1159.64 81.7338C1159.59 81.6269 1159.5 81.5432 1159.39 81.4978H1159.16C1158.7 81.3597 1158.29 81.0861 1157.99 80.7125L1157.7 80.4172C1157.41 80.1328 1157.23 79.6887 1157.11 79.2556C1156.97 78.8794 1156.65 78.5841 1156.24 78.5841H1155.01C1154.8 78.554 1154.59 78.4821 1154.41 78.3725C1154.22 78.2629 1154.06 78.1177 1153.93 77.9453L1153.81 77.7966C1153.6 77.4919 1153.44 77.158 1153.32 76.8056C1153.18 76.5103 1152.86 76.3375 1152.56 76.4294L1152.21 76.5431C1151.63 76.7488 1151.05 76.8275 1150.47 76.7706L1150 76.7137C1149.5 76.7137 1149.03 76.5081 1148.65 76.2237L1148.36 76.0181C1148.13 75.847 1147.89 75.7085 1147.63 75.6069C1147.34 75.4931 1147.1 75.55 1146.93 75.7556L1146.78 75.9263C1146.49 76.2342 1146.1 76.4383 1145.68 76.5081L1144.11 76.6C1143.81 76.6112 1143.53 76.7374 1143.32 76.9522C1143.1 77.1539 1142.82 77.2914 1142.52 77.3503H1142.47C1142.18 77.3503 1141.88 77.5559 1141.6 77.7616V77.8184C1141.46 77.959 1141.3 78.0707 1141.11 78.1469C1140.93 78.2231 1140.74 78.2624 1140.54 78.2625L1140.43 78.3194C1140.08 78.3194 1139.73 78.3194 1139.38 78.4112H1139.03C1138.54 78.49 1138.15 78.9012 1138.04 79.4262L1137.92 80.0978C1137.83 80.5552 1137.63 80.9845 1137.34 81.3513C1137.05 81.7034 1136.69 81.9331 1136.26 81.9331H1135.77C1135.47 82.0009 1135.18 82.3203 1135.23 82.6616C1135.3 83.1625 1135.23 83.5956 1135.15 84.0397L1135.04 84.5297C1134.99 84.7372 1134.89 84.93 1134.75 85.0923C1134.61 85.2546 1134.44 85.3819 1134.24 85.4638L1134.07 85.5556H1134.01C1133.84 85.6694 1133.72 85.9319 1133.86 86.1375C1134.03 86.3972 1134.11 86.7073 1134.07 87.0147L1133.98 87.9488C1133.96 88.2859 1133.86 88.6141 1133.69 88.9069C1133.61 89.036 1133.56 89.1845 1133.55 89.338C1133.54 89.4916 1133.57 89.6452 1133.64 89.7841L1133.92 90.4228C1134.07 90.7107 1134.1 91.0453 1134.01 91.3569C1133.91 91.6378 1133.87 91.9369 1133.9 92.2341C1133.9 92.5294 1134.07 92.8159 1134.31 92.9406L1134.42 93.0522ZM1157.46 114.142C1157.75 114.426 1158.19 114.54 1158.54 114.312L1159.12 113.936C1159.43 113.725 1159.65 113.416 1159.76 113.059V113.002L1160.06 112.125L1160.23 111.83L1160.35 111.545L1160.46 111.34C1160.52 111.218 1160.6 111.11 1160.7 111.023C1160.8 110.936 1160.92 110.873 1161.05 110.839L1161.16 110.782C1161.4 110.725 1161.55 110.497 1161.55 110.257C1161.55 109.972 1161.69 109.732 1161.83 109.528L1162.07 109.323L1162.65 108.57V108.513C1162.82 108.274 1162.94 108.002 1163 107.715C1163.05 107.42 1163.01 107.118 1162.88 106.849L1162.82 106.724C1162.72 106.484 1162.65 106.231 1162.62 105.972L1162.54 105.151L1162.45 104.274C1162.45 103.99 1162.56 103.692 1162.74 103.408C1162.94 103.169 1163.08 102.872 1163.21 102.587V102.474L1163.27 102.417C1163.32 102.122 1163.18 101.824 1162.91 101.824C1162.62 101.686 1162.33 101.448 1162.24 101.096L1162.15 100.925C1162.01 100.413 1161.93 99.884 1161.92 99.3522L1161.98 97.8931V97.8013C1161.98 97.5693 1161.89 97.3475 1161.72 97.1835C1161.56 97.0195 1161.34 96.9263 1161.1 96.9241H1161.05C1160.78 96.9347 1160.51 96.8884 1160.26 96.7881C1160 96.6879 1159.78 96.536 1159.59 96.3422L1159.36 96.0469L1158.77 95.3862L1158.01 94.5091C1157.73 94.1029 1157.41 93.7287 1157.05 93.3934C1156.76 93.1091 1156.32 92.8116 1155.88 92.7547L1155.3 92.6628C1154.95 92.5903 1154.62 92.4554 1154.31 92.2647C1154.07 92.0831 1153.73 92.14 1153.49 92.3784L1153.11 92.7897L1152.93 92.9034C1152.73 92.9603 1152.54 92.8466 1152.44 92.6081C1152.32 92.2462 1152.34 91.8508 1152.5 91.5034V91.3328C1152.5 91.1272 1152.33 90.9806 1152.15 91.0375H1151.68C1151.15 91.057 1150.63 90.9599 1150.14 90.7531L1149.85 90.6284C1149.55 90.4805 1149.22 90.4027 1148.89 90.4009C1148.58 90.3941 1148.28 90.4728 1148.01 90.6284L1147.9 90.7203C1147.55 90.9441 1147.14 91.0737 1146.73 91.0966H1145.77C1145.34 91.0922 1144.93 91.2284 1144.59 91.4838C1144.22 91.7087 1143.81 91.863 1143.38 91.9388L1142.59 92.0634C1142.21 92.1447 1141.84 92.3122 1141.53 92.5534C1141.25 92.8488 1140.84 93.0216 1140.46 93.1353L1140.31 93.2031C1139.83 93.3437 1139.42 93.651 1139.15 94.0694L1138.8 94.4216C1138.7 94.5567 1138.64 94.7204 1138.64 94.8886C1138.64 95.0567 1138.7 95.2204 1138.8 95.3556C1138.97 95.6509 1139.32 95.7319 1139.67 95.6509L1140.11 95.4694C1140.34 95.3906 1140.61 95.4694 1140.8 95.5831C1140.9 95.6625 1141.01 95.7215 1141.14 95.7568C1141.26 95.7921 1141.38 95.803 1141.51 95.7887L1142.24 95.71C1142.65 95.71 1143.06 95.71 1143.46 95.8238C1143.9 95.9725 1144.28 96.1191 1144.63 96.4056C1144.96 96.6747 1145.37 96.8379 1145.79 96.8738C1146.24 96.9306 1146.67 97.0225 1147.08 97.1691L1147.36 97.2259C1147.66 97.3178 1147.9 97.5103 1148.07 97.8078C1148.22 98.0463 1148.35 98.3897 1148.35 98.685V98.7769C1148.35 99.1181 1148.65 99.3587 1148.95 99.3587H1149.12C1149.59 99.3587 1150.09 99.4156 1150.58 99.5644L1150.78 99.6431C1151.1 99.7593 1151.37 99.9655 1151.57 100.236C1151.81 100.52 1151.94 100.818 1152.04 101.102L1152.13 101.513C1152.21 101.957 1152.24 102.391 1152.24 102.859V103.008C1152.24 103.292 1152.45 103.589 1152.77 103.703C1153.06 103.76 1153.41 103.885 1153.74 104.055L1153.87 104.112C1154.26 104.34 1154.64 104.637 1154.92 104.989L1155.07 105.195C1155.46 105.628 1155.65 106.186 1155.65 106.733V106.938C1155.65 107.382 1155.57 107.816 1155.42 108.227C1155.31 108.579 1155.42 108.99 1155.8 109.104L1156.01 109.253C1156.45 109.423 1156.83 109.743 1157.11 110.119C1157.41 110.563 1157.52 111.053 1157.52 111.578V112.455C1157.47 112.751 1157.38 112.98 1157.24 113.184C1157.09 113.387 1157.09 113.685 1157.24 113.89L1157.41 114.175L1157.46 114.142ZM1138.79 99.2056H1138.74C1138.61 99.2056 1138.55 99.3544 1138.59 99.5009L1138.7 100.083C1138.82 100.551 1138.87 101.017 1138.94 101.485C1139 101.953 1139.22 102.351 1139.58 102.647H1139.69C1139.91 102.815 1140.08 103.027 1140.21 103.269C1140.33 103.511 1140.41 103.777 1140.42 104.049V105.508C1140.36 105.792 1140.42 106.09 1140.6 106.328L1140.74 106.466C1141.01 106.8 1141.16 107.21 1141.18 107.638L1141.26 109.244C1141.26 109.62 1141.04 109.94 1140.68 109.997L1140.4 110.053C1140.19 110.053 1140.1 110.292 1140.1 110.497C1140.1 110.725 1140.19 110.988 1140.27 111.226V111.283C1140.36 111.567 1140.4 111.865 1140.36 112.16L1140.25 112.945C1140.14 113.516 1139.95 114.066 1139.67 114.575L1139.46 114.927C1139.34 115.182 1139.13 115.387 1138.87 115.509C1138.73 115.566 1138.61 115.653 1138.51 115.763C1138.41 115.874 1138.33 116.005 1138.29 116.148L1138.06 117.196C1137.89 117.815 1137.64 118.407 1137.3 118.95H1137.24C1136.89 119.427 1136.44 119.823 1135.93 120.112L1135.58 120.35L1134.7 120.783C1134.56 120.848 1134.44 120.946 1134.35 121.069C1134.26 121.193 1134.2 121.337 1134.18 121.49L1134.04 122.448C1133.95 123.03 1133.74 123.531 1133.33 123.907L1132.95 124.351L1132.51 124.784L1132.08 125.252C1131.73 125.663 1131.2 125.834 1130.62 125.753L1129.57 125.547L1128.6 125.423H1128.34C1128.23 125.547 1128.2 125.718 1128.28 125.891C1128.49 126.243 1128.81 126.484 1129.16 126.484L1129.8 126.597C1130.09 126.597 1130.45 126.746 1130.73 126.882C1131.03 127.087 1131.31 127.234 1131.67 127.326H1131.72C1132.11 127.475 1132.51 127.497 1132.9 127.475L1133.33 127.407C1133.83 127.35 1134.3 127.407 1134.7 127.588L1135.05 127.702C1135.2 127.759 1135.42 127.702 1135.57 127.553C1135.74 127.39 1135.94 127.263 1136.16 127.177L1136.39 127.12C1136.77 127.007 1137.15 126.939 1137.56 126.939H1137.79C1138.13 126.939 1138.47 127.007 1138.75 127.177L1138.87 127.234C1139.07 127.326 1139.31 127.234 1139.46 127.063C1139.54 126.858 1139.74 126.652 1139.95 126.482L1140.68 125.981L1141.14 125.685L1141.38 125.547C1141.7 125.347 1142.06 125.244 1142.43 125.252L1143.48 125.16C1143.68 125.134 1143.87 125.049 1144.03 124.916C1144.19 124.782 1144.3 124.605 1144.36 124.408C1144.47 123.964 1144.64 123.531 1144.94 123.154C1145.23 122.767 1145.52 122.448 1145.82 122.163C1146.14 121.889 1146.55 121.725 1146.98 121.695H1147.22C1147.44 121.65 1147.65 121.525 1147.79 121.344C1147.93 121.162 1148.01 120.936 1148 120.704V118.744C1148.06 118.46 1148.17 118.073 1148.34 117.786L1148.93 116.909L1149.16 116.614C1149.34 116.465 1149.46 116.272 1149.66 116.032L1149.95 115.656C1150.13 115.36 1150.13 114.984 1149.89 114.722C1149.62 114.413 1149.45 114.027 1149.4 113.617V113.492C1149.33 113.005 1149.36 112.51 1149.48 112.033V111.895C1149.63 111.508 1149.83 111.132 1150.07 110.78C1150.18 110.643 1150.24 110.469 1150.22 110.294C1150.2 110.119 1150.12 109.958 1149.98 109.846L1149.48 109.412C1149.08 109.049 1148.83 108.549 1148.78 108.01L1148.73 107.428C1148.73 107.247 1148.73 107.052 1148.67 106.847L1148.61 106.403C1148.58 106.166 1148.49 105.94 1148.36 105.739C1148.22 105.539 1148.05 105.369 1147.85 105.241L1147.64 105.184C1147.32 104.981 1147.04 104.714 1146.82 104.399C1146.6 104.103 1146.48 103.692 1146.39 103.283L1146.3 102.793C1146.3 102.612 1146.18 102.498 1146.01 102.417L1144.61 101.973C1144.32 101.916 1144.03 101.688 1143.83 101.483H1143.77C1143.59 101.244 1143.3 101.244 1143.12 101.415L1142.84 101.71C1142.78 101.802 1142.71 101.824 1142.63 101.802C1142.45 101.802 1142.33 101.653 1142.39 101.507C1142.42 101.279 1142.4 101.046 1142.31 100.832C1142.22 100.618 1142.08 100.43 1141.9 100.288L1141.51 99.9931L1140.65 99.4112C1140.41 99.3194 1140.06 99.4113 1139.94 99.6956L1139.83 99.8772C1139.83 99.9341 1139.74 99.9559 1139.71 99.9909C1139.59 99.9909 1139.42 99.9909 1139.42 99.8422L1139.33 99.6934C1139.25 99.5228 1139.04 99.4091 1138.86 99.3522L1138.79 99.2056ZM1135.3 102.122L1135.15 101.973C1135 101.859 1134.85 101.881 1134.7 102.03C1134.49 102.377 1134.33 102.753 1134.23 103.145V103.202C1134.16 103.578 1133.8 103.841 1133.45 103.784H1133.11C1132.91 103.788 1132.73 103.869 1132.59 104.01C1132.45 104.151 1132.38 104.34 1132.38 104.537C1132.38 105.062 1132.2 105.595 1131.88 105.996L1131.71 106.177C1131.4 106.547 1130.99 106.82 1130.54 106.962L1130.31 107.019C1130.16 107.057 1130.02 107.138 1129.92 107.252C1129.82 107.365 1129.75 107.506 1129.73 107.658C1129.73 107.953 1129.54 108.251 1129.31 108.478L1129.02 108.706C1128.67 109.093 1128.14 109.299 1127.62 109.356L1126.16 109.504C1125.69 109.504 1125.29 109.789 1125 110.233C1124.7 110.666 1124.27 110.961 1123.84 111.018L1123.19 111.075C1122.7 111.141 1122.21 111.122 1121.73 111.018L1121.44 110.961L1120.64 110.756C1120.52 110.711 1120.39 110.707 1120.26 110.744C1120.14 110.781 1120.03 110.857 1119.95 110.961L1119.65 111.337C1119.47 111.545 1119.25 111.706 1118.99 111.808C1118.74 111.909 1118.47 111.947 1118.19 111.919L1116.3 111.692C1116.01 111.692 1115.78 111.543 1115.52 111.397C1115.22 111.226 1115.02 111.02 1114.81 110.815L1114.08 109.937C1114 109.881 1113.85 109.846 1113.7 109.881L1113.29 110.051L1111.66 110.462C1111.37 110.554 1110.99 110.463 1110.71 110.292C1110.41 110.053 1110.06 109.997 1109.7 109.997H1109.33C1109.24 110.018 1109.16 110.057 1109.09 110.11C1109.02 110.164 1108.96 110.231 1108.92 110.307C1108.88 110.384 1108.85 110.468 1108.84 110.556C1108.83 110.644 1108.83 110.732 1108.86 110.817L1108.97 111.399C1109.07 111.694 1109.04 112.037 1108.89 112.333C1108.75 112.628 1108.78 112.915 1108.97 113.21L1109.15 113.437C1109.38 113.79 1109.74 114.087 1110.03 114.372C1110.32 114.667 1110.61 114.953 1110.84 115.341L1111.29 116.126C1111.38 116.321 1111.53 116.484 1111.72 116.597C1111.9 116.71 1112.12 116.768 1112.33 116.765C1112.77 116.765 1113.21 116.913 1113.55 117.198L1114.43 118.018C1114.67 118.224 1115.01 118.257 1115.25 118.075L1115.4 118.018C1115.57 118.018 1115.68 118.132 1115.68 118.313V118.462C1115.68 118.838 1115.98 119.191 1116.35 119.328L1117.66 119.624C1118.13 119.772 1118.6 119.919 1119.04 120.206H1119.27C1119.33 120.205 1119.39 120.193 1119.44 120.168C1119.49 120.144 1119.54 120.109 1119.58 120.064C1119.62 120.02 1119.65 119.968 1119.67 119.912C1119.68 119.855 1119.69 119.796 1119.68 119.737V118.723C1119.68 118.427 1119.79 118.13 1120.03 118.016L1120.18 117.959C1120.32 118.016 1120.47 118.13 1120.41 118.254V118.744C1120.41 119.121 1120.52 119.473 1120.79 119.735C1120.91 119.867 1121.07 119.96 1121.25 120.002C1121.42 120.044 1121.61 120.035 1121.78 119.974C1122.13 119.825 1122.48 119.792 1122.86 119.825L1123.94 119.882C1124.47 119.939 1124.96 119.882 1125.4 119.676C1125.93 119.506 1126.36 119.265 1126.77 118.948L1126.94 118.834L1127.82 118.049C1128.09 117.771 1128.45 117.611 1128.84 117.605H1130C1130.3 117.566 1130.57 117.431 1130.79 117.221C1131 117.011 1131.13 116.738 1131.18 116.443L1131.29 115.861C1131.29 115.474 1131.46 115.133 1131.72 114.835C1132.02 114.54 1132.31 114.367 1132.6 114.253L1132.95 114.105C1133.2 113.997 1133.42 113.837 1133.6 113.637C1133.78 113.437 1133.92 113.2 1134 112.943L1134.17 112.237C1134.32 111.655 1134.62 111.075 1135.05 110.699L1135.11 110.631C1135.46 110.347 1135.52 109.765 1135.29 109.356L1135.19 109.15C1135.09 108.986 1135.03 108.801 1135.02 108.609C1135 108.417 1135.03 108.223 1135.1 108.045C1135.25 107.634 1135.4 107.282 1135.63 106.93L1135.92 106.518C1136.04 106.291 1136.04 105.937 1135.87 105.733C1135.68 105.503 1135.58 105.219 1135.57 104.924L1135.51 104.512V103.522C1135.56 103.196 1135.53 102.864 1135.42 102.553L1135.31 102.211L1135.3 102.122ZM1131.13 99.8991V99.8203C1131.13 99.525 1130.94 99.3522 1130.71 99.3522H1129.95C1129.68 99.4091 1129.4 99.4091 1129.13 99.3522H1127.82C1127.15 99.3522 1126.51 99.2275 1125.87 99.0569L1125.17 98.8863L1124.58 98.7047L1123.27 98.2716C1122.94 98.1755 1122.62 98.009 1122.36 97.7831C1122.09 97.5572 1121.87 97.277 1121.72 96.9613L1121.58 96.6659C1121.37 96.2328 1120.94 95.9944 1120.5 96.0841C1120 96.0841 1119.51 96.0841 1119.04 95.8566L1118.69 95.7078C1118.02 95.4125 1117.53 94.8306 1117.53 94.0453L1117.41 93.26C1117.33 92.8488 1117.06 92.4747 1116.71 92.3259C1116.3 92.1374 1115.91 91.9126 1115.54 91.6544L1115.4 91.5625C1114.94 91.2097 1114.58 90.7367 1114.37 90.1953L1114.32 90.0247C1114.17 89.5523 1114.15 89.0482 1114.26 88.5656L1114.32 88.3841C1114.43 88.0078 1114.47 87.6316 1114.47 87.2225C1114.46 86.858 1114.31 86.5099 1114.05 86.2534L1113.64 85.8772C1113.41 85.6891 1113.22 85.4539 1113.08 85.1869C1112.95 84.92 1112.87 84.6274 1112.86 84.3284C1112.79 83.7061 1112.81 83.0775 1112.92 82.4603V82.2897C1112.91 82.1355 1112.85 81.9879 1112.74 81.8789C1112.63 81.7699 1112.49 81.7084 1112.33 81.7078H1112.24C1111.87 81.7078 1111.55 81.9353 1111.36 82.2897C1111.22 82.676 1111 83.0315 1110.73 83.3375L1110.61 83.4863L1109.73 84.3634C1109.44 84.6478 1109.27 85.0919 1109.21 85.525C1109.15 85.9692 1109.04 86.4032 1108.86 86.8134L1108.8 86.9622C1108.66 87.3097 1108.43 87.6128 1108.13 87.8394C1107.99 87.9488 1107.87 88.088 1107.78 88.2473C1107.7 88.4067 1107.65 88.5824 1107.64 88.7625L1107.58 90.1078C1107.58 90.6897 1107.49 91.2803 1107.29 91.8622L1107.23 92.0897C1107.16 92.2658 1107.15 92.4637 1107.22 92.6435C1107.28 92.8233 1107.41 92.9716 1107.58 93.0588L1108.8 93.5838L1108.91 93.6406C1109.01 93.6406 1109.04 93.6975 1109.06 93.7894C1109.15 93.9031 1109.06 94.0738 1108.97 94.0738L1108.69 94.2225C1108.52 94.2794 1108.39 94.4609 1108.33 94.6666L1108.28 94.9509V95.0078L1107.98 96.6484C1107.93 96.8759 1107.93 97.1384 1107.93 97.4009C1107.93 97.5135 1107.96 97.6234 1108.02 97.7169C1108.08 97.8103 1108.17 97.8831 1108.28 97.9259L1108.92 98.2213C1109.21 98.3919 1109.57 98.5975 1109.79 98.8031L1110.09 99.0416C1110.18 99.1606 1110.3 99.2578 1110.43 99.3259L1110.55 99.4397C1110.76 99.6176 1110.9 99.8514 1110.97 100.111L1111.25 101.422C1111.25 101.774 1111.55 102.071 1111.83 102.15L1112.3 102.299C1112.3 102.299 1112.39 102.299 1112.45 102.356L1113.03 102.537C1113.5 102.686 1113.91 102.948 1114.26 103.29C1114.61 103.585 1114.96 103.961 1115.25 104.372L1115.37 104.486C1115.61 104.782 1115.95 104.93 1116.3 104.838C1116.65 104.747 1117.03 104.725 1117.41 104.725H1117.85C1118.13 104.725 1118.52 104.803 1118.84 105.009C1119.13 105.191 1119.51 105.304 1119.86 105.453H1119.95C1120.11 105.52 1120.3 105.545 1120.48 105.525C1120.65 105.505 1120.83 105.441 1120.97 105.339C1121.27 105.104 1121.64 104.98 1122.02 104.987L1123.39 105.066C1123.68 105.066 1123.97 105.009 1124.12 104.782H1124.17L1124.68 104.313L1124.82 104.165C1124.94 104.032 1125.08 103.926 1125.24 103.851C1125.4 103.777 1125.57 103.736 1125.75 103.732H1127.07C1127.41 103.732 1127.74 103.436 1127.88 103.15C1127.95 102.997 1128.06 102.864 1128.2 102.762C1128.34 102.659 1128.5 102.589 1128.66 102.557L1129.26 102.443C1129.48 102.443 1129.69 102.238 1129.78 101.975C1129.85 101.704 1130 101.461 1130.21 101.279L1130.68 100.811C1130.95 100.565 1131.13 100.236 1131.18 99.8772L1131.13 99.8991Z"
      fill="black"
    />
  </g>
  <path
    d="M880.4 316.5V303.05H884.875V321H844.5V303.05H849V316.5H880.4ZM853.925 301.8L854.85 297.4L876.825 302.025L875.9 306.425L853.925 301.8ZM856.825 291.275L858.725 287.25L879.075 296.7L877.175 300.75L856.825 291.275ZM862.475 281.3L865.35 277.85L882.6 292.25L879.725 295.675L862.475 281.3ZM873.6 270.675L887 288.7L883.4 291.375L870 273.35L873.6 270.675ZM853.475 312.025V307.525H875.925V312.025H853.475Z"
    fill="black"
  />
  <g clip-path="url(#clip1_98_60)">
    <path
      d="M110 363C91.2235 363 76 378.223 76 397C76 415.776 91.2235 431 110 431C128.776 431 144 415.776 144 397C144 378.223 128.776 363 110 363ZM110 371.001C113.414 371.001 116.795 371.674 119.949 372.98C123.104 374.287 125.97 376.202 128.384 378.616C130.798 381.03 132.713 383.896 134.02 387.051C135.326 390.205 135.999 393.586 135.999 397C135.999 400.414 135.326 403.795 134.02 406.949C132.713 410.104 130.798 412.97 128.384 415.384C125.97 417.798 123.104 419.713 119.949 421.02C116.795 422.326 113.414 422.999 110 422.999C103.105 422.999 96.4919 420.26 91.6162 415.384C86.7405 410.508 84.0013 403.895 84.0013 397C84.0013 390.105 86.7405 383.492 91.6162 378.616C96.4919 373.74 103.105 371.001 110 371.001ZM124.441 385.332C123.515 385.332 122.713 385.871 122.277 386.607C119.373 390.752 116.015 395.566 112.961 399.941L111.864 398.139C111.642 397.765 111.328 397.454 110.951 397.236C110.575 397.019 110.149 396.901 109.714 396.895C109.25 396.903 108.797 397.037 108.404 397.282C108.011 397.528 107.692 397.876 107.481 398.289L106.47 399.935L100.826 391.597C100.606 391.218 100.291 390.903 99.9136 390.682C99.5359 390.46 99.1073 390.34 98.6695 390.333C97.2132 390.333 96.111 391.614 96.111 393.053C96.1105 393.678 96.3167 394.286 96.6975 394.781L104.401 406.001C104.832 406.772 105.648 407.333 106.6 407.333C107.06 407.325 107.509 407.193 107.901 406.953C108.293 406.712 108.614 406.371 108.83 405.965C108.96 405.763 109.481 404.922 109.719 404.537L110.638 406.01C110.538 405.877 110.853 406.33 110.884 406.378C110.952 406.466 111.037 406.546 111.105 406.619C111.159 406.673 111.218 406.721 111.269 406.766C111.371 406.86 111.496 406.925 111.595 406.993C111.666 407.038 111.742 407.072 111.81 407.106C111.893 407.149 111.98 407.174 112.06 407.206C112.224 407.276 112.405 407.282 112.57 407.319C112.658 407.33 112.751 407.327 112.83 407.333C113.652 407.333 114.377 406.911 114.834 406.313C118.8 400.646 122.886 394.824 126.447 389.741C126.809 389.252 127.003 388.66 127 388.052C127 386.613 125.898 385.332 124.441 385.332Z"
      fill="black"
    />
  </g>
  <path
    d="M503.5 222.917C498.958 222.917 494.461 223.811 490.265 225.549C486.07 227.287 482.257 229.835 479.046 233.046C472.56 239.532 468.917 248.328 468.917 257.5C468.917 272.786 478.842 285.755 492.572 290.354C494.301 290.631 494.854 289.559 494.854 288.625V282.78C485.275 284.855 483.234 278.146 483.234 278.146C481.643 274.135 479.395 273.062 479.395 273.062C476.248 270.918 479.637 270.987 479.637 270.987C483.096 271.23 484.929 274.55 484.929 274.55C487.937 279.806 493.021 278.25 494.992 277.42C495.304 275.172 496.203 273.65 497.171 272.786C489.494 271.921 481.436 268.947 481.436 255.771C481.436 251.932 482.75 248.854 484.998 246.399C484.652 245.534 483.442 241.938 485.344 237.269C485.344 237.269 488.249 236.335 494.854 240.796C497.586 240.035 500.56 239.655 503.5 239.655C506.44 239.655 509.414 240.035 512.146 240.796C518.751 236.335 521.656 237.269 521.656 237.269C523.558 241.938 522.348 245.534 522.002 246.399C524.25 248.854 525.564 251.932 525.564 255.771C525.564 268.982 517.472 271.887 509.76 272.751C511.005 273.823 512.146 275.933 512.146 279.149V288.625C512.146 289.559 512.699 290.665 514.463 290.354C528.192 285.72 538.083 272.786 538.083 257.5C538.083 252.958 537.189 248.461 535.451 244.266C533.713 240.07 531.165 236.257 527.954 233.046C524.743 229.835 520.93 227.287 516.734 225.549C512.539 223.811 508.042 222.917 503.5 222.917Z"
    fill="black"
  />
  <defs>
    <filter
      id="filter0_d_98_60"
      x="-9"
      y="0"
      width="1291"
      height="495.5"
      filterUnits="userSpaceOnUse"
      color-interpolation-filters="sRGB"
    >
      <feFlood flood-opacity="0" result="BackgroundImageFix" />
      <feColorMatrix
        in="SourceAlpha"
        type="matrix"
        values="0 0 0 0 0 0 0 0 0 0 0 0 0 0 0 0 0 0 127 0"
        result="hardAlpha"
      />
      <feOffset dy="-1" />
      <feGaussianBlur stdDeviation="2" />
      <feComposite in2="hardAlpha" operator="out" />
      <feColorMatrix
        type="matrix"
        values="0 0 0 0 0.945098 0 0 0 0 0.364706 0 0 0 0 0.364706 0 0 0 0.48 0"
      />
      <feBlend
        mode="normal"
        in2="BackgroundImageFix"
        result="effect1_dropShadow_98_60"
      />
      <feBlend
        mode="normal"
        in="SourceGraphic"
        in2="effect1_dropShadow_98_60"
        result="shape"
      />
    </filter>
    <filter
      id="filter1_d_98_60"
      x="56"
      y="47"
      width="1134"
      height="407"
      filterUnits="userSpaceOnUse"
      color-interpolation-filters="sRGB"
    >
      <feFlood flood-opacity="0" result="BackgroundImageFix" />
      <feColorMatrix
        in="SourceAlpha"
        type="matrix"
        values="0 0 0 0 0 0 0 0 0 0 0 0 0 0 0 0 0 0 127 0"
        result="hardAlpha"
      />
      <feOffset dy="3" />
      <feGaussianBlur stdDeviation="5" />
      <feComposite in2="hardAlpha" operator="out" />
      <feColorMatrix
        type="matrix"
        values="0 0 0 0 0 0 0 0 0 0 0 0 0 0 0 0 0 0 0.25 0"
      />
      <feBlend
        mode="normal"
        in2="BackgroundImageFix"
        result="effect1_dropShadow_98_60"
      />
      <feBlend
        mode="normal"
        in="SourceGraphic"
        in2="effect1_dropShadow_98_60"
        result="shape"
      />
    </filter>
    <filter
      id="filter2_d_98_60"
      x="197"
      y="291"
      width="912"
      height="166"
      filterUnits="userSpaceOnUse"
      color-interpolation-filters="sRGB"
    >
      <feFlood flood-opacity="0" result="BackgroundImageFix" />
      <feColorMatrix
        in="SourceAlpha"
        type="matrix"
        values="0 0 0 0 0 0 0 0 0 0 0 0 0 0 0 0 0 0 127 0"
        result="hardAlpha"
      />
      <feOffset dy="4" />
      <feGaussianBlur stdDeviation="2" />
      <feComposite in2="hardAlpha" operator="out" />
      <feColorMatrix
        type="matrix"
        values="0 0 0 0 0 0 0 0 0 0 0 0 0 0 0 0 0 0 0.25 0"
      />
      <feBlend
        mode="normal"
        in2="BackgroundImageFix"
        result="effect1_dropShadow_98_60"
      />
      <feBlend
        mode="normal"
        in="SourceGraphic"
        in2="effect1_dropShadow_98_60"
        result="shape"
      />
    </filter>
    <clipPath id="clip0_98_60">
      <rect
        width="70"
        height="70"
        fill="white"
        transform="translate(1100 64)"
      />
    </clipPath>
    <clipPath id="clip1_98_60">
      <rect width="68" height="68" fill="white" transform="translate(76 363)" />
    </clipPath>
  </defs>
</svg>
